Jump_normalized_Motion_pl04
version=1
nRows=8
nColumns=43
inDegrees=yes
endheader
time		pelvis_tilt		pelvis_list		pelvis_rotation		pelvis_tx		pelvis_ty		pelvis_tz		hip_flexion_r		hip_adduction_r		hip_rotation_r		knee_angle_r		ankle_angle_r		subtalar_angle_r		mtp_angle_r		hip_flexion_l		hip_adduction_l		hip_rotation_l		knee_angle_l		ankle_angle_l		subtalar_angle_l		mtp_angle_l		lumbar_extension		lumbar_bending		lumbar_rotation		neck_flexion		neck_lateral_bending		neck_rotation		arm_flex_r		arm_add_r		arm_rot_r		elbow_flex_r		pro_sup_r		wrist_flex_r		wrist_dev_r		hand_finger_flex_r		arm_flex_l		arm_add_l		arm_rot_l		elbow_flex_l		pro_sup_l		wrist_flex_l		wrist_dev_l		hand_finger_flex_l		
2.317500		-2.793370		-25.405830		88.286865		0.012690		1.610415		1.695800		104.643816		-4.960519		8.528963		-137.237899		16.842975		16.268423		31.007468		101.225724		-8.817628		9.428105		-136.822813		31.131276		14.542266		15.145166		-50.709008		-4.679617		-2.166349		43.823382		4.902204		-1.379928		77.410034		-21.593572		19.399533		65.803937		90.361196		-7.943512		-7.130764		-8.005238		86.930374		-18.412138		21.355299		59.244870		91.693167		-12.376771		-5.906156		12.049679		
2.320101		-2.804499		-25.756355		88.229573		0.012845		1.609645		1.694800		104.950392		-4.909500		8.475276		-137.329764		16.836101		16.426361		31.023271		101.503134		-8.958274		9.412186		-136.923725		31.135047		14.565385		15.140067		-50.269308		-4.741528		-2.177444		44.127368		4.878199		-1.382132		78.420164		-21.180602		19.658617		65.687947		90.267010		-7.855313		-7.020637		-8.161909		87.863227		-17.948256		21.428038		58.927750		91.620578		-12.335775		-5.739823		11.920259		
2.322702		-2.825341		-25.990533		88.178816		0.012739		1.608934		1.693714		105.161757		-4.921462		8.502678		-137.445619		16.906358		16.595658		31.040962		101.647460		-8.965521		9.456197		-137.065345		31.124129		14.603660		15.132788		-49.929787		-4.795101		-2.124940		44.369494		4.872086		-1.371153		79.531459		-20.858563		19.985129		65.434046		90.101862		-7.776988		-6.877599		-8.353998		88.827799		-17.431051		21.642937		58.587828		91.517531		-12.283642		-5.578067		11.755593		
2.325303		-2.834275		-26.126671		88.155843		0.012521		1.608433		1.692543		105.251619		-4.997258		8.533521		-137.558822		17.014082		16.790614		31.060408		101.680053		-8.968778		9.487165		-137.191570		31.110232		14.654924		15.124173		-49.702866		-4.796880		-2.093856		44.505139		4.888417		-1.368161		80.648905		-20.534255		20.354997		65.245213		89.860613		-7.706678		-6.773753		-8.576875		89.822016		-16.951135		21.872759		58.228727		91.354258		-12.254579		-5.446973		11.545374		
2.327904		-2.841892		-26.276012		88.111265		0.012425		1.607898		1.691211		105.329235		-5.021302		8.566205		-137.673898		17.150324		16.890180		31.066851		101.702849		-8.988702		9.520228		-137.359506		31.124345		14.673608		15.123917		-49.491074		-4.829605		-2.055856		44.519118		4.897372		-1.367969		81.587061		-20.185170		20.416403		65.287345		89.755369		-7.706400		-6.776706		-8.666258		90.619101		-16.545066		21.922442		58.235346		91.272614		-12.261816		-5.439318		11.447641		
2.330505		-2.838696		-26.319695		88.152845		0.012213		1.607693		1.690010		105.305229		-5.145116		8.556550		-137.782532		17.360837		17.218947		31.088982		101.597488		-8.968881		9.522639		-137.428360		31.129107		14.774378		15.116332		-49.332459		-4.815875		-2.102090		44.855902		4.915900		-1.369225		82.952988		-19.709893		20.992676		64.577015		89.376275		-7.641662		-6.540534		-8.952595		91.843253		-15.958102		22.306576		57.403342		90.975691		-12.259670		-5.204626		11.118440		
2.333106		-2.837641		-26.237064		88.231471		0.011900		1.607735		1.688673		105.095910		-5.315049		8.590165		-137.886913		17.530396		17.503871		31.113588		101.339024		-8.876236		9.518789		-137.529336		31.144824		14.879822		15.109062		-49.365351		-4.758039		-2.151315		44.848653		4.963990		-1.377357		84.228122		-19.344673		21.459040		64.197531		88.918368		-7.603507		-6.468938		-9.275639		92.970621		-15.540906		22.685517		56.956762		90.613541		-12.240811		-5.141755		10.764509		
2.335707		-2.868716		-26.074401		88.206951		0.011741		1.607842		1.687035		104.792916		-5.370779		8.659747		-138.003590		17.882321		17.705820		31.159355		100.959436		-8.899450		9.487903		-137.679423		31.220883		14.934080		15.094558		-49.503979		-4.772632		-2.207334		44.801607		4.951981		-1.304655		85.376522		-18.981194		21.864242		64.028918		88.100591		-7.637491		-6.682741		-9.871706		93.943012		-15.352659		23.104860		56.869445		89.934622		-12.208295		-5.359430		10.142241		
